<svg width="136" height="155" viewBox="0 0 136 155" fill="none" xmlns="http://www.w3.org/2000/svg">
<path fill-rule="evenodd" clip-rule="evenodd" d="M116.602 5.33778e-07H29.3093C26.7618 -0.000596826 24.239 0.500198 21.8852 1.47364C19.5315 2.44709 17.3928 3.87405 15.5915 5.67325C13.7901 7.47245 12.3613 9.60852 11.3866 11.9594C10.412 14.3103 9.91061 16.8299 9.91121 19.3744V29.0639C8.61984 29.036 7.33605 29.2658 6.13484 29.7401C4.93362 30.2144 3.83931 30.9235 2.91612 31.8258C1.99294 32.7281 1.25931 33.8055 0.758553 34.9947C0.257797 36.1839 0 37.461 0 38.7511C0 40.0412 0.257797 41.3184 0.758553 42.5076C1.25931 43.6969 1.99294 44.7741 2.91612 45.6764C3.83931 46.5787 4.93362 47.2878 6.13484 47.7621C7.33605 48.2364 8.61984 48.4664 9.91121 48.4384V67.8128C8.61984 67.7849 7.33605 68.0147 6.13484 68.489C4.93362 68.9633 3.83931 69.6724 2.91612 70.5747C1.99294 71.477 1.25931 72.5544 0.758553 73.7436C0.257797 74.9328 0 76.2099 0 77.5C0 78.7901 0.257797 80.0672 0.758553 81.2564C1.25931 82.4456 1.99294 83.523 2.91612 84.4253C3.83931 85.3276 4.93362 86.0367 6.13484 86.511C7.33605 86.9853 8.61984 87.2151 9.91121 87.1872V106.562C8.61984 106.534 7.33605 106.764 6.13484 107.238C4.93362 107.712 3.83931 108.421 2.91612 109.324C1.99294 110.226 1.25931 111.303 0.758553 112.492C0.257797 113.682 0 114.959 0 116.249C0 117.539 0.257797 118.816 0.758553 120.005C1.25931 121.195 1.99294 122.272 2.91612 123.174C3.83931 124.076 4.93362 124.786 6.13484 125.26C7.33605 125.734 8.61984 125.964 9.91121 125.936V135.626C9.91061 138.17 10.412 140.69 11.3866 143.041C12.3613 145.391 13.7901 147.528 15.5915 149.327C17.3928 151.126 19.5315 152.553 21.8852 153.526C24.239 154.5 26.7618 155.001 29.3093 155H116.602C119.15 155.001 121.672 154.5 124.026 153.526C126.38 152.553 128.518 151.126 130.32 149.327C132.121 147.528 133.55 145.391 134.525 143.041C135.499 140.69 136.001 138.17 136 135.626V19.3744C136.001 16.8299 135.499 14.3103 134.525 11.9594C133.55 9.60852 132.121 7.47245 130.32 5.67325C128.518 3.87405 126.38 2.44709 124.026 1.47364C121.672 0.500198 119.15 -0.000596826 116.602 5.33778e-07ZM116.602 135.626H29.3093V125.95C30.6007 125.978 31.8845 125.748 33.0857 125.273C34.2869 124.799 35.3812 124.09 36.3044 123.188C37.2276 122.286 37.9612 121.208 38.462 120.019C38.9627 118.83 39.2205 117.553 39.2205 116.262C39.2205 114.972 38.9627 113.695 38.462 112.506C37.9612 111.317 37.2276 110.24 36.3044 109.337C35.3812 108.435 34.2869 107.726 33.0857 107.252C31.8845 106.777 30.6007 106.547 29.3093 106.575V87.2009C30.6007 87.2289 31.8845 86.9989 33.0857 86.5246C34.2869 86.0503 35.3812 85.3413 36.3044 84.439C37.2276 83.5367 37.9612 82.4593 38.462 81.2701C38.9627 80.0809 39.2205 78.8037 39.2205 77.5136C39.2205 76.2235 38.9627 74.9464 38.462 73.7572C37.9612 72.568 37.2276 71.4906 36.3044 70.5883C35.3812 69.686 34.2869 68.977 33.0857 68.5027C31.8845 68.0285 30.6007 67.7985 29.3093 67.8264V48.452C30.6007 48.48 31.8845 48.25 33.0857 47.7757C34.2869 47.3014 35.3812 46.5924 36.3044 45.6901C37.2276 44.7878 37.9612 43.7105 38.462 42.5212C38.9627 41.332 39.2205 40.055 39.2205 38.7648C39.2205 37.4747 38.9627 36.1975 38.462 35.0083C37.9612 33.8191 37.2276 32.7417 36.3044 31.8394C35.3812 30.9371 34.2869 30.2281 33.0857 29.7538C31.8845 29.2796 30.6007 29.0496 29.3093 29.0775V19.3881H116.602V135.626ZM58.4039 58.1233H87.5029C88.7942 58.1512 90.0783 57.9214 91.2795 57.4471C92.4808 56.9728 93.5751 56.2637 94.4982 55.3614C95.4214 54.4591 96.1548 53.3817 96.6555 52.1925C97.1563 51.0033 97.4144 49.7262 97.4144 48.4361C97.4144 47.146 97.1563 45.8689 96.6555 44.6797C96.1548 43.4905 95.4214 42.4131 94.4982 41.5108C93.5751 40.6085 92.4808 39.8993 91.2795 39.4251C90.0783 38.9508 88.7942 38.7209 87.5029 38.7489H58.4039C57.1125 38.7209 55.8285 38.9508 54.6272 39.4251C53.426 39.8993 52.3317 40.6085 51.4085 41.5108C50.4853 42.4131 49.752 43.4905 49.2512 44.6797C48.7505 45.8689 48.4924 47.146 48.4924 48.4361C48.4924 49.7262 48.7505 51.0033 49.2512 52.1925C49.752 53.3817 50.4853 54.4591 51.4085 55.3614C52.3317 56.2637 53.426 56.9728 54.6272 57.4471C55.8285 57.9214 57.1125 58.1512 58.4039 58.1233Z" fill="#1D1D1D"/>
</svg>
