<svg width="155" height="156" viewBox="0 0 155 156" fill="none" xmlns="http://www.w3.org/2000/svg">
<path fill-rule="evenodd" clip-rule="evenodd" d="M77.4999 0C62.1718 0 47.1882 4.5747 34.4434 13.1454C21.6986 21.7162 11.7652 33.898 5.89941 48.1506C0.0336209 62.4033 -1.50119 78.0864 1.48916 93.2169C4.47951 108.347 11.8607 122.246 22.6993 133.154C33.5378 144.063 47.3469 151.492 62.3804 154.501C77.4139 157.511 92.9965 155.966 107.158 150.063C121.319 144.159 133.423 134.161 141.939 121.334C150.455 108.507 155 93.4268 155 77.9999C154.977 57.32 146.805 37.4939 132.276 22.8711C117.746 8.24825 98.0471 0.0230132 77.4999 0ZM77.4999 136.496C62.1735 136.36 47.5212 130.137 36.7315 119.181C25.9417 108.225 19.888 93.4234 19.888 77.9976C19.888 62.5718 25.9417 47.7703 36.7315 36.8145C47.5212 25.8587 62.1735 19.6352 77.4999 19.4988V136.496Z" fill="#1D1D1D"/>
</svg>
