<svg width="156" height="116" viewBox="0 0 156 116" fill="none" xmlns="http://www.w3.org/2000/svg">
<path fill-rule="evenodd" clip-rule="evenodd" d="M136.501 5.32626e-07H19.4994C16.9386 -0.000595537 14.4027 0.499118 12.0366 1.47046C9.67057 2.4418 7.52073 3.86568 5.70992 5.66099C3.89911 7.45631 2.46281 9.58776 1.48308 11.9336C0.503355 14.2794 -0.000600677 16.7936 5.37296e-07 19.3325V96.6675C5.37296e-07 101.795 2.05439 106.712 5.71124 110.338C9.3681 113.963 14.3279 116 19.4994 116H136.501C141.672 116 146.632 113.963 150.289 110.338C153.946 106.712 156 101.795 156 96.6675V19.3325C156.001 16.7936 155.497 14.2794 154.517 11.9336C153.537 9.58776 152.101 7.45631 150.29 5.66099C148.479 3.86568 146.329 2.4418 143.963 1.47046C141.597 0.499118 139.061 -0.000595537 136.501 5.32626e-07ZM121.271 19.3325L77.9977 55.0805L34.7246 19.3325H121.271ZM136.501 96.6675H19.4994V31.9185L71.7603 75.0981C73.5139 76.5411 75.7211 77.3308 78 77.3308C80.2789 77.3308 82.4861 76.5411 84.2397 75.0981L136.501 31.9185V96.6675Z" fill="#1D1D1D"/>
</svg>
