<svg width="155" height="153" viewBox="0 0 155 153" fill="none" xmlns="http://www.w3.org/2000/svg">
<path fill-rule="evenodd" clip-rule="evenodd" d="M144.573 76.5084C142.269 76.5001 140.039 77.3264 138.294 78.8352C136.55 80.3441 135.408 82.4338 135.079 84.7197C133.841 92.5806 131.01 100.104 126.76 106.826C122.511 113.549 116.932 119.327 110.369 123.806C103.806 128.284 96.3967 131.368 88.5989 132.866C80.8012 134.365 72.7798 134.247 65.0293 132.519C53.1233 130.03 42.3207 123.797 34.1941 114.728H48.458C49.763 114.813 51.0717 114.63 52.303 114.188C53.5344 113.747 54.6624 113.057 55.6169 112.161C56.5715 111.264 57.3324 110.182 57.8526 108.979C58.3728 107.776 58.6411 106.479 58.6411 105.168C58.6411 103.858 58.3728 102.561 57.8526 101.358C57.3324 100.155 56.5715 99.0722 55.6169 98.1762C54.6624 97.2801 53.5344 96.5899 52.303 96.1483C51.0717 95.7067 49.763 95.5232 48.458 95.609H9.70796C8.44085 95.597 7.18381 95.8361 6.00917 96.3126C4.83454 96.7891 3.76547 97.4933 2.86333 98.3853C1.96119 99.2772 1.24379 100.339 0.752397 101.51C0.261005 102.681 0.00534046 103.937 0 105.207V143.445C0.0549049 145.983 1.09964 148.4 2.91042 150.176C4.72119 151.952 7.15402 152.947 9.68754 152.947C12.2211 152.947 14.6538 151.952 16.4645 150.176C18.2753 148.4 19.32 145.983 19.3749 143.445V126.972C29.1731 137.962 41.8771 145.944 56.0152 149.995C70.1533 154.046 85.1471 154 99.26 149.862C113.373 145.723 126.027 137.662 135.758 126.612C145.488 115.562 151.896 101.975 154.24 87.425C154.418 86.0524 154.3 84.6574 153.893 83.3348C153.486 82.0121 152.8 80.793 151.881 79.7597C150.962 78.7263 149.833 77.9029 148.569 77.3459C147.304 76.7889 145.935 76.5111 144.555 76.5312M145.328 0.0468211C142.778 0.0346597 140.327 1.03589 138.512 2.83145C136.696 4.62701 135.665 7.07045 135.643 9.62665V26.0496C127.115 16.5147 116.386 9.22014 104.394 4.80472C92.4016 0.389291 79.5124 -1.0124 66.8544 0.722026C50.3131 2.96044 34.9384 10.503 23.0272 22.223C11.116 33.9431 3.30786 49.2114 0.769203 65.7469C0.511518 68.2527 1.23523 70.7609 2.78763 72.742C4.34004 74.723 6.59959 76.022 9.08946 76.3647C11.5793 76.7074 14.1047 76.067 16.1324 74.5788C18.1602 73.0906 19.5318 70.871 19.9576 68.3884C21.6965 57.5177 26.4615 47.3597 33.7044 39.0828C40.9473 30.806 50.374 24.7463 60.9003 21.601C71.4265 18.4557 82.6248 18.3525 93.2071 21.3031C103.789 24.2536 113.326 30.138 120.719 38.2798H106.569C105.27 38.2045 103.969 38.3962 102.746 38.8428C101.523 39.2894 100.404 39.9816 99.4572 40.8771C98.5107 41.7726 97.7566 42.8524 97.2411 44.0504C96.7257 45.2484 96.46 46.5392 96.46 47.8438C96.46 49.1484 96.7257 50.4392 97.2411 51.6372C97.7566 52.8352 98.5107 53.915 99.4572 54.8105C100.404 55.706 101.523 56.3984 102.746 56.845C103.969 57.2916 105.27 57.483 106.569 57.4077H145.328C147.721 57.4037 150.029 56.519 151.814 54.9216C152.81 54.032 153.609 52.9424 154.158 51.7235C154.706 50.5045 154.993 49.1833 155 47.846V9.59018C154.976 7.03473 153.944 4.5928 152.129 2.79776C150.314 1.00271 147.864 0.000589014 145.315 0.0103462" fill="#1D1D1D"/>
</svg>
