<svg width="155" height="155" viewBox="0 0 155 155" fill="none" xmlns="http://www.w3.org/2000/svg">
<path fill-rule="evenodd" clip-rule="evenodd" d="M141.735 88.1888L112.669 78.5005C108.244 77.0223 103.435 77.1914 99.1258 78.9764C94.8162 80.7614 91.296 84.0423 89.2123 88.216L85.6848 95.2582C79.5687 93.3779 74.0057 90.0291 69.4812 85.5042C64.9567 80.9792 61.6082 75.4157 59.7281 69.2989L66.7696 65.771C70.9415 63.6881 74.2213 60.169 76.0061 55.8607C77.7908 51.5525 77.9607 46.7449 76.4841 42.3215L66.8015 13.2616C65.1816 8.38737 61.6922 4.35599 57.1009 2.05413C52.5096 -0.247741 47.1922 -0.631686 42.3179 0.986652L19.848 8.44704C17.2878 9.29485 14.933 10.6688 12.9352 12.4805C10.9373 14.2922 9.34057 16.5018 8.24705 18.9672C2.77016 31.2958 -0.040047 44.6427 0.000837849 58.1333C-0.062296 73.1474 3.44338 87.9617 10.2289 101.355C11.3588 103.747 12.6138 106.078 13.9884 108.338C18.026 115.057 22.9051 121.232 28.5076 126.714C29.4486 127.664 30.5714 128.769 31.7988 129.874C45.6807 142.464 62.9151 150.759 81.4145 153.754C99.9139 156.749 118.885 154.316 136.03 146.749C138.494 145.653 140.703 144.055 142.516 142.058C144.329 140.06 145.705 137.706 146.558 135.147L154.017 112.675C155.631 107.801 155.246 102.486 152.944 97.8968C150.643 93.3074 146.615 89.8189 141.744 88.1977M128.156 129.046C114.431 135.096 99.2461 137.035 84.4412 134.628C69.6364 132.221 55.8473 125.571 44.7453 115.484C43.7771 114.612 42.9268 113.743 42.0177 112.87C37.5687 108.506 33.6962 103.592 30.4942 98.245C29.4311 96.4895 28.4614 94.6791 27.5892 92.8214C22.1324 82.0788 19.3106 70.1917 19.3569 58.1425C19.3311 47.3664 21.5754 36.7057 25.9436 26.8549L48.4138 19.3946L58.1009 48.4544L38.7312 58.1377C38.7577 73.5455 44.89 88.3144 55.7847 99.2085C66.6793 110.103 81.4478 116.233 96.854 116.257L106.55 96.8856L135.607 106.574L128.156 129.046Z" fill="#1D1D1D"/>
</svg>
